<svg width="199" height="29" viewBox="0 0 199 29" fill="none" xmlns="http://www.w3.org/2000/svg">
<path d="M88.9956 0.0195313L85.0859 0.0195312V28.4373H88.9956V0.0195313Z" fill="white"/>
<path d="M198.395 3.94158V0.0390625L180.929 0.0390625L177.02 0.0390625V3.94158V10.2579V14.1658V24.5105V28.1448V28.413L198.395 28.413V24.5105L180.929 24.5105V14.1658L189.678 14.1658V10.2579L180.929 10.2579V3.94158L198.395 3.94158Z" fill="white"/>
<path d="M17.5144 0.0195313L0 28.4373H4.91012L17.5144 7.99424L17.5144 28.4373H21.7013L21.7013 0.0195313L17.5144 0.0195313Z" fill="white"/>
<path d="M78.5383 0.0195313L69.6641 0.0195313L65.7491 0.0195313L56.875 0.0195312V3.96583L65.7491 3.96583V28.4373L69.6641 28.4373V3.96583L78.5383 3.96583V0.0195313Z" fill="white"/>
<path d="M142.987 14.2567C142.987 12.6803 142.987 11.0985 142.949 9.52221V8.09365C142.936 7.66065 142.872 7.23072 142.758 6.81288C142.661 6.32169 142.521 5.84003 142.34 5.37339C141.312 2.51081 137.903 -0.0562003 134.841 0.00948016C133.21 0.0423204 131.579 -0.0233601 129.948 0.00948016C129.195 0.0321596 128.449 0.15548 127.729 0.376196C127.131 0.561351 126.554 0.807087 126.005 1.10963C125.801 1.2127 125.603 1.32785 125.413 1.45445C123.118 2.99794 121.71 5.17635 121.606 7.95682V8.03892C121.606 8.23596 121.606 8.433 121.579 8.63004V9.42916C121.546 11.0055 121.534 12.58 121.541 14.1527C121.541 15.7345 121.541 17.3108 121.579 18.8926V20.3212C121.593 20.7429 121.655 21.1617 121.764 21.5691C121.868 22.1147 122.027 22.6483 122.237 23.1619C123.325 25.9752 126.674 28.4656 129.692 28.4053C131.323 28.3725 132.954 28.4053 134.586 28.4053C135.34 28.3822 136.088 28.2589 136.81 28.0386C137.432 27.8437 138.031 27.5832 138.599 27.2614C138.778 27.1684 138.952 27.0698 139.142 26.9604C141.437 25.4114 142.845 23.2385 142.949 20.458C142.946 20.4289 142.946 20.3996 142.949 20.3704C142.949 20.1789 142.949 19.9818 142.949 19.7848V18.9857C142.987 17.4093 142.992 15.833 142.987 14.2567ZM133.803 24.7053C133.504 24.7053 133.205 24.7053 132.906 24.7053C132.084 24.7053 131.274 24.7053 130.442 24.7053C129.131 24.6981 127.875 24.1694 126.949 23.2343C126.024 22.2993 125.502 21.0338 125.5 19.7136C125.396 17.8417 125.462 15.9589 125.462 14.0815C125.462 12.4395 125.462 10.8249 125.462 9.1938C125.429 8.1738 125.685 7.16546 126.2 6.28645C126.715 5.40744 127.468 4.69402 128.371 4.22945C129.109 3.87365 129.924 3.70993 130.741 3.75327C131.04 3.75327 131.34 3.75327 131.639 3.75327C132.454 3.78064 133.27 3.75327 134.102 3.75327C136.935 3.90105 138.876 5.80578 139.039 8.74498C139.142 10.6169 139.077 12.4942 139.083 14.3716C139.083 16.0136 139.083 17.6556 139.083 19.2648C139.113 20.2844 138.856 21.292 138.342 22.1706C137.827 23.0493 137.075 23.763 136.174 24.2292C135.435 24.585 134.62 24.7487 133.803 24.7053Z" fill="white"/>
<path d="M109.333 14.2503L118.093 0.0195313L113.412 0.0195313C113.412 0.0195313 100.862 19.8331 100.41 20.479V0.0250047L96.5117 0.0250047V28.4373H100.612L106.936 18.1583L113.2 28.4373H117.898L109.333 14.2503Z" fill="white"/>
<path d="M47.0863 0.0195313V21.924L33.3565 0.0195313L29.4414 0.0195312L29.4414 28.4373H33.3565L33.3565 7.1787L47.0863 28.4373H51.0013V0.0195313L47.0863 0.0195313Z" fill="white"/>
<path d="M170.514 8.17797C170.405 4.65859 168.469 2.18463 165.299 0.684921C164.41 0.261248 163.439 0.0406969 162.455 0.0390625L149.09 0.0390625V2.38714C149.09 10.7213 149.09 19.0554 149.09 27.3895V28.4295H150.351C154.245 28.4295 158.143 28.3966 162.037 28.4295C163.381 28.4683 164.711 28.1533 165.897 27.5154C168.426 26.1197 170.247 24.0562 170.416 21.128C170.623 16.8204 170.644 12.4855 170.514 8.17797ZM166.664 20.3398C166.561 22.5292 164.266 24.6364 162.113 24.6583C159.96 24.6802 153.103 24.6911 153.103 24.6911V3.76643C153.103 3.76643 159.682 3.84853 161.803 3.76643C164.277 3.67886 166.805 6.38818 166.729 8.45711C166.702 9.43685 166.778 18.3201 166.664 20.3398Z" fill="white"/>
</svg>
