<svg width="7" height="50" viewBox="0 0 7 50" fill="none" xmlns="http://www.w3.org/2000/svg">
<path d="M0.00450979 27.0337L0.00450984 27.9997L6.59904 27.9997L6.59904 27.0337L0.00450979 27.0337Z" fill="white"/>
<path d="M0.914949 0.00195428L0.0093429 0.00195432L0.00934313 5.28342L6.59372 5.28342L6.59372 0.00195403L5.68811 0.00195407L5.68811 4.31741L3.28756 4.31741L3.28756 2.15565L2.38068 2.15565L2.38068 4.31741L0.914949 4.31741L0.914949 0.00195428Z" fill="white"/>
<path d="M0.00450969 44.6959L6.59904 49.0234L6.59904 47.8102L1.85509 44.6959L6.59904 44.6959L6.59904 43.6614L0.00450965 43.6614L0.00450969 44.6959Z" fill="white"/>
<path d="M0.00450962 29.6175L0.00450985 34.9702L0.920276 34.9702L0.920276 32.7775L6.59904 32.7775L6.59904 31.8102L0.920276 31.8102L0.920276 29.6175L0.00450962 29.6175Z" fill="white"/>
<path d="M3.30836 13.6927C2.94256 13.6927 2.57549 13.6927 2.20969 13.7021L1.87819 13.7021C1.77771 13.7053 1.67794 13.721 1.58097 13.7491C1.46699 13.7732 1.35522 13.8078 1.24693 13.8526C0.58265 14.1065 -0.0130432 14.9489 0.00219848 15.7053C0.0098193 16.1084 -0.00542229 16.5114 0.00219853 16.9145C0.00746146 17.1004 0.0360788 17.2847 0.0872975 17.4626C0.130264 17.6103 0.187289 17.753 0.257495 17.8885C0.281415 17.939 0.308134 17.9879 0.337514 18.035C0.695692 18.602 1.20121 18.9499 1.84643 18.9755L1.86548 18.9755C1.91121 18.9755 1.95693 18.9755 2.00266 18.9822L2.1881 18.9822C2.5539 18.9903 2.91927 18.9934 3.28422 18.9916C3.65129 18.9916 4.01709 18.9916 4.38416 18.9822L4.71567 18.9822C4.81354 18.9788 4.91071 18.9635 5.00526 18.9365C5.13186 18.9108 5.25569 18.8716 5.37486 18.8196C6.02771 18.5509 6.60562 17.7233 6.59165 16.9776C6.58403 16.5746 6.59165 16.1715 6.59165 15.7684C6.58628 15.5821 6.55766 15.3973 6.50655 15.2189C6.46132 15.0653 6.40087 14.9171 6.32619 14.7769C6.3046 14.7326 6.28174 14.6896 6.25634 14.6426C5.89689 14.0756 5.39265 13.7276 4.74742 13.7021C4.74066 13.7027 4.73386 13.7027 4.7271 13.7021C4.68264 13.7021 4.63692 13.7021 4.59119 13.7021L4.40575 13.7021C4.03995 13.6927 3.67416 13.6913 3.30836 13.6927ZM5.73304 15.9619C5.73304 16.0358 5.73304 16.1097 5.73304 16.1836C5.73304 16.3865 5.73304 16.5867 5.73304 16.7922C5.73137 17.1163 5.60867 17.4265 5.39169 17.6553C5.1747 17.884 4.88103 18.0128 4.57468 18.0135C4.14029 18.039 3.70337 18.0229 3.26771 18.0229C2.88667 18.0229 2.51198 18.0229 2.13348 18.0229C1.89679 18.031 1.66279 17.9677 1.45881 17.8404C1.25483 17.7132 1.08928 17.5272 0.981472 17.3041C0.898906 17.1217 0.860913 16.9203 0.87097 16.7183C0.87097 16.6444 0.87097 16.5705 0.87097 16.4966C0.877321 16.2951 0.87097 16.0936 0.87097 15.888C0.905264 15.188 1.34727 14.7084 2.02933 14.6681C2.46372 14.6426 2.89937 14.6587 3.33503 14.6573C3.71607 14.6573 4.09711 14.6573 4.47053 14.6573C4.70714 14.6497 4.94095 14.7132 5.14484 14.8404C5.34874 14.9677 5.51437 15.1534 5.62254 15.3761C5.70511 15.5585 5.7431 15.7599 5.73304 15.9619Z" fill="white"/>
<path d="M3.30686 22.0077L0.0045096 19.8433L0.00450965 21.0001C0.00450965 21.0001 4.60239 24.101 4.75227 24.2125L0.00577995 24.2125L0.00577999 25.1758L6.59904 25.1758L6.59904 24.1628L4.21373 22.6002L6.59904 21.0525L6.59904 19.8917L3.30686 22.0077Z" fill="white"/>
<path d="M0.00450968 37.3895L5.08759 37.3895L0.00450982 40.782L0.00450987 41.7493L6.59905 41.7493L6.59905 40.782L1.66584 40.782L6.59904 37.3895L6.59904 36.4222L0.00450963 36.4222L0.00450968 37.3895Z" fill="white"/>
<path d="M1.89803 6.8923C1.08134 6.91917 0.507236 7.39747 0.159219 8.18076C0.0609026 8.40043 0.00972228 8.64038 0.00934301 8.88343L0.00934315 12.1859L0.554231 12.1859C2.48822 12.1859 4.42221 12.1859 6.3562 12.1859L6.59753 12.1859L6.59753 11.8742C6.59753 10.9122 6.58991 9.94886 6.59753 8.98688C6.60655 8.6548 6.53343 8.32598 6.38542 8.03297C6.06153 7.40822 5.58269 6.95813 4.90317 6.91648C3.90357 6.86543 2.89763 6.86006 1.89803 6.8923ZM4.72027 7.84353C5.22833 7.86906 5.71733 8.43603 5.72241 8.96807C5.72749 9.50012 5.73003 11.1943 5.73003 11.1943L0.874305 11.1943C0.874305 11.1943 0.893357 9.56864 0.874305 9.04465C0.853983 8.43334 1.4827 7.8086 1.96281 7.82741C2.19016 7.83412 4.25159 7.81531 4.72027 7.84353Z" fill="white"/>
</svg>
